PathFileType	4	(X/Y/Z)	RBDS018\RBDS018runT25.trc
DataRate	CameraRate	NumFrames	NumMarkers	Units	OrigDataRate	OrigDataStartFrame	OrigNumFrames
150.000000	150.000000	6	33	mm	150.000000	3937	4500
Frame#	Time	L.ASIS			L.Heel.Bottom			L.Heel.Lateral			L.Heel.Top			L.Iliac.Crest			L.MT1			L.MT5			L.PSIS			L.Shank.Bottom.Lateral			L.Shank.Bottom.Medial			L.Shank.Top.Lateral			L.Shank.Top.Medial			L.Thigh.Bottom.Lateral			L.Thigh.Bottom.Medial			L.Thigh.Top.Lateral			L.Thigh.Top.Medial			R.ASIS			R.ASY			R.Heel.Bottom			R.Heel.Lateral			R.Heel.Top			R.Iliac.Crest			R.MT1			R.MT5			R.PSIS			R.Shank.Bottom.Lateral			R.Shank.Bottom.Medial			R.Shank.Top.Lateral			R.Shank.Top.Medial			R.Thigh.Bottom.Lateral			R.Thigh.Bottom.Medial			R.Thigh.Top.Lateral			R.Thigh.Top.Medial			
		X1	Y1	Z1	X2	Y2	Z2	X3	Y3	Z3	X4	Y4	Z4	X5	Y5	Z5	X6	Y6	Z6	X7	Y7	Z7	X8	Y8	Z8	X9	Y9	Z9	X10	Y10	Z10	X11	Y11	Z11	X12	Y12	Z12	X13	Y13	Z13	X14	Y14	Z14	X15	Y15	Z15	X16	Y16	Z16	X17	Y17	Z17	X18	Y18	Z18	X19	Y19	Z19	X20	Y20	Z20	X21	Y21	Z21	X22	Y22	Z22	X23	Y23	Z23	X24	Y24	Z24	X25	Y25	Z25	X26	Y26	Z26	X27	Y27	Z27	X28	Y28	Z28	X29	Y29	Z29	X30	Y30	Z30	X31	Y31	Z31	X32	Y32	Z32	X33	Y33	Z33	

3938	26.24666666666667	2040.266663240143	981.6191829438189	892.3086502050262	1809.312957255953	36.97832419633875	1003.662819665442	1837.537218404335	46.73640579710938	954.8280210261971	1822.62984826765	85.99400880484994	1000.539114505957	1959.719947790206	1037.422257494629	857.4126362648897	2036.338141735838	39.67591564826448	1036.371176859017	2002.255982812831	43.35963529050686	922.6725287349782	1870.370437222007	994.7513097518133	980.191292114121	1924.774550135438	175.2012742559982	914.1815488759559	1894.463601930516	198.6665161138901	948.4320608931262	1951.303206084314	245.6837040683977	884.3245517430387	1924.347940668375	273.3022674973868	921.1336774677219	2057.516415003022	585.4721730671682	830.1741706075618	2004.040005774649	571.3123029131011	877.9749748487982	2018.227298517051	686.7412521699329	815.2296611716719	1966.305447343799	672.8847615274661	859.7469274474648	2070.209178358819	965.3678747329692	1123.106512957021	1634.455338141237	242.3834336785165	1076.982847960369	1573.739217590351	433.2743136328999	1059.241608132742	1590.250111079187	415.0371905496094	1097.97836816054	1623.451024429071	422.3901314758311	1059.101866729751	2009.075647008949	1038.595702261017	1166.144504342571	1590.913667600968	209.5131955571096	1031.015768791865	1589.058049514196	241.907461400246	1137.605190341149	1885.515852669495	991.1839862686702	1086.441421404099	1737.810183789655	389.6356724117117	1130.709484245933	1730.491653016882	432.2919086170572	1095.942866901454	1814.136390741324	415.5875387322783	1143.317450462342	1806.108453778537	455.6078995457648	1108.577002886964	2049.532413960572	547.0920572186473	1163.50092320603	1985.32175917574	542.457051276178	1130.004581082665	2029.555564051111	653.8088128399319	1185.34986169146	1967.730802575088	648.1241101480709	1156.020067461305	
3939	26.25333333333333	2038.861101149618	980.1218720411855	892.8666991720723	1792.611322744105	37.79990678997135	1003.499367224064	1820.80961696109	47.14143012679246	954.584523710149	1806.164635257385	86.71793327550212	1000.079776245605	1957.680612503158	1036.599234847796	857.8181762643691	2019.477136215245	39.48245102774147	1036.202124855625	1985.342743050268	43.04268247753461	922.413339886416	1869.055062995884	994.0530565129803	980.458726834411	1909.570400424054	175.2393656813774	913.384426698591	1879.962365031364	199.3376759096952	947.7174210065722	1937.583453433526	245.0735664133735	883.473287717394	1911.274615562965	273.3242256709698	920.2901086774207	2050.142561707086	583.1374077238821	829.075762120459	1996.416672820439	569.4946847622303	876.7390099088883	2012.480309106114	685.115344944245	814.8017148416758	1960.363752758158	671.807214229089	859.2794989868107	2068.093016556626	964.645633227893	1124.070015486463	1648.822141752996	240.9968509796463	1078.212205102062	1585.404755266879	431.0667054343028	1061.309777981973	1602.44060347856	413.0020700749466	1099.89145185086	1635.277314109496	420.8453883499519	1060.796239561083	2006.563195891676	1038.285724032479	1166.366180342292	1605.430064786702	207.5711202825692	1032.62626340035	1604.006094286874	239.8281036479102	1139.294115508079	1883.868661050477	990.6393425853315	1086.660126857093	1750.921107250233	388.7919900212007	1132.164293732724	1743.371613329816	431.4610038244253	1097.455756521286	1827.207403455046	414.9735453285286	1144.58789204547	1818.955947794113	454.981875783858	1109.874380570876	2059.483286413129	547.1059532619448	1165.534273188028	1995.000217498912	540.2669808836386	1132.867744957195	2036.497120190773	653.2563875737065	1187.129219284674	1974.529168994052	645.4875643647214	1158.569547235252	
3940	26.26	2037.673572220998	979.1040771987937	893.7026023552238	1775.835743813544	38.66070448966629	1003.363022818107	1804.003242995855	47.62140237735565	954.3746468561209	1789.620813223271	87.49062133057845	999.6845447479095	1956.157237261978	1036.562552666278	858.1768408449412	2002.521060743067	39.29955947109741	1036.096435244883	1968.335119678469	42.78596062333796	922.2065937152464	1867.87123295491	993.810966799163	980.5570033957556	1894.063580655667	175.3942963819045	912.7428644696186	1865.119733217922	200.0598233334304	947.1615459302983	1923.41251623865	244.634319570462	882.7601188581234	1897.707413318877	273.4422875947536	919.6019711854759	2042.099143163595	581.1216079142911	828.0596617426928	1988.026674890017	568.1321722067706	875.5072217233649	2006.326178670477	683.8661704507634	814.4364528243018	1953.962004100811	671.2341559522316	858.844626768639	2066.046403125099	964.57532389085	1125.054851287512	1663.858530074002	238.9066840665574	1079.27271469252	1596.851004473635	427.7820708912394	1063.271213962978	1614.47168056477	409.9485277230903	1101.683168215062	1646.921168202243	418.468106912176	1062.425216823731	2004.160252966638	1038.557544576355	1166.552537035135	1620.818439067425	204.7647936541379	1034.012047545756	1619.599998465371	236.8023228857219	1140.787998156745	1882.347975719377	990.6427839007276	1086.800435769725	1764.039598992587	387.5567415986432	1133.587401521358	1756.066841345121	430.2758910299104	1099.037745877764	1840.158631645315	414.2916592066905	1145.909169084614	1831.503605273781	454.3295091813295	1111.320687581016	2069.284707925037	548.0646935595622	1167.556592636573	2004.701112873959	539.0539940138891	1135.550892688143	2043.28553222301	653.5460475076774	1188.94070345978	1981.300933338136	643.7186479824609	1161.053930531683	
3941	26.26666666666667	2036.725232374107	978.5182368116849	894.7278514329373	1759.00456198641	39.60050513408259	1003.239955831198	1787.13883527793	48.2071647173783	954.1870697371961	1773.01848435451	88.34802938852633	999.3349645607341	1955.206838956334	1037.161099720884	858.4738362986353	1985.485060883171	39.1604676731166	1036.039027669934	1951.249905459406	42.60034075542914	922.0516335555681	1866.829713495374	994.0188517532815	980.4889627162645	1878.296928708286	175.7206674033195	912.2697512801331	1849.963366117091	200.8811535016004	946.7787765753054	1908.82965913296	244.4339753499447	882.216465581842	1883.681565690961	273.7165015759933	919.1047632915664	2033.424564483634	579.4771308966137	827.2141664998489	1978.917515574223	567.3047909079908	874.3769357724319	1999.804204107094	683.0266156257692	814.1821957193621	1947.15100534614	671.2237681674255	858.5011548582494	2064.127121157014	965.055293482008	1126.019430649975	1679.521861452326	236.1440367019887	1080.168237054307	1608.064134280357	423.3995302288295	1065.10368969913	1626.317849284356	405.8668316193379	1103.336722537936	1658.354239437241	415.2369906333689	1063.981406363161	2001.90462496192	1039.239471451869	1166.73990938519	1637.054259033151	201.1310057458279	1035.164858129126	1635.78879861654	232.8674619978682	1142.077183635698	1880.96507670346	991.121286408522	1086.839736171761	1777.108348504879	385.925671271119	1134.969353108699	1768.519041987411	428.7290927327572	1100.684594970162	1852.924974761123	413.5354272521628	1147.277984220023	1843.686417517184	453.6417397714521	1112.918530506373	2078.792309172708	549.9604594247596	1169.520769678787	2014.282612667764	538.8409775436199	1137.987608545282	2049.807011072225	654.6767475273898	1190.738747146623	1987.935125681889	642.8436030805685	1163.405290099737	
3942	26.27333333333333	2036.028720121202	978.324217775826	895.8351658715436	1742.141417226269	40.67550281649213	1003.110659359058	1770.243770194541	48.93674692917001	954.0033535538281	1756.388384882391	89.34046532841653	999.0005801688594	1954.850939438696	1038.252136867237	858.6959752971864	1968.388334635349	39.09056855065586	1036.007319526356	1934.108301245247	42.48882081208067	921.9410941277122	1865.945678837766	994.682699056474	980.2582371795276	1862.316103061559	176.2815126901125	911.9588626238177	1834.531085969003	201.857868362282	946.5678906281648	1893.880334832101	244.5458417028595	881.8586631365665	1869.241583649957	274.2131981625954	918.8196586715723	2024.188417120303	578.2705326304498	826.6134657641516	1969.174688202865	567.0976114623959	873.4322598913346	1992.978177912926	682.6405709203025	814.0796690899126	1940.005678750842	671.8368426192508	858.2945762233518	2062.382469178352	965.9974550662889	1126.923228138028	1695.774094850268	232.7514253429008	1080.909169774374	1619.061129846953	417.9084856785936	1066.784999371388	1637.983214856729	400.757904043788	1104.837379830255	1669.574125815191	411.1382163628006	1065.452511122381	1999.821457350755	1040.204313249624	1166.948037145026	1654.114916284749	196.7224307392101	1036.084641512844	1652.530818939656	228.0791357786136	1143.159063218021	1879.728326759486	992.0273652895047	1086.753291988446	1790.081103751166	383.8989512970091	1136.298745714701	1780.684422467419	426.8094991966335	1102.381038179022	1865.451250914817	412.6969914846032	1148.68342001812	1855.451322075029	452.8998917469033	1114.654966329826	2087.876054505276	552.7600047378746	1171.388603159477	2023.606933240532	539.6216219904421	1140.134062085907	2055.961164994161	656.626650818885	1192.481807646341	1994.328207641678	642.8648031081752	1165.566754300881	
3943	26.28	2035.590296712671	978.4940254906485	896.9144770205111	1725.273479372587	41.95547851689504	1002.955008315057	1753.350570737441	49.85728646345744	953.8034766863794	1739.769739842286	90.53065943277477	998.6479599904234	1955.078897359262	1039.719637203767	858.8322669143781	1951.252443400353	39.10405996752574	1035.976647887631	1916.934268318612	42.44922362410542	921.8648408741391	1865.239258288897	995.8140336388126	979.8692977137142	1846.17018879666	177.1432221364608	911.7926564349228	1818.870471446993	203.0506145835027	946.5177464646719	1878.617304999481	245.0430300092401	881.6909444747131	1854.440969023735	275.0007913814346	918.7550973589682	2014.48512702989	577.575035020437	826.3129994993751	1958.915561468586	567.5924831491023	872.7406991068165	1985.930128287497	682.7565916674773	814.159452185342	1932.619449452021	673.1296106009969	858.2559488528948	2060.847464588779	967.3374466169699	1127.728773869515	1712.582227948162	228.7816390016477	1081.510742859743	1629.887297597624	411.3106160644848	1068.294077263991	1649.499965698846	394.6341081783972	1106.172947139043	1680.602803079307	406.1679096365243	1066.821448760852	1997.926313707065	1041.38289929359	1167.178083483871	1671.978887313032	191.6066326639224	1036.779212686853	1669.795785804016	222.5093679745073	1144.037463733842	1878.645091534862	993.3375556567071	1086.519515828564	1802.923523499088	381.481371608487	1137.562328545469	1792.534954232194	424.5029884930026	1104.10075170493	1877.693237763194	411.7672360850996	1150.107251904184	1866.758642428134	452.076262917085	1116.501487639945	2096.430846894393	556.4061376831615	1173.134165262219	2032.55286005095	541.3606102966802	1141.970307057003	2061.669945044314	659.3541276526108	1194.135567213401	2000.39380640273	643.7607061703625	1167.495585640884	
